<mxfile host="app.diagrams.net" modified="2022-10-09T19:32:19.404Z" agent="5.0 (X11)" etag="wGOKaZM8b8SU94Af-32q" version="20.4.0" type="github">
  <diagram id="6a731a19-8d31-9384-78a2-239565b7b9f0" name="Page-1">
    <mxGraphModel dx="2217" dy="793" grid="1" gridSize="10" guides="1" tooltips="1" connect="1" arrows="1" fold="1" page="1" pageScale="1" pageWidth="827" pageHeight="1169" background="none" math="0" shadow="0">
      <root>
        <mxCell id="0" />
        <mxCell id="1" parent="0" />
        <mxCell id="ssPpFOcRR2jyjij2KuCS-2260" style="edgeStyle=orthogonalEdgeStyle;rounded=0;orthogonalLoop=1;jettySize=auto;html=1;entryX=0.5;entryY=0;entryDx=0;entryDy=0;entryPerimeter=0;startArrow=none;" edge="1" parent="1" source="ssPpFOcRR2jyjij2KuCS-2493" target="ssPpFOcRR2jyjij2KuCS-2258">
          <mxGeometry relative="1" as="geometry" />
        </mxCell>
        <mxCell id="ssPpFOcRR2jyjij2KuCS-2271" style="edgeStyle=orthogonalEdgeStyle;rounded=0;orthogonalLoop=1;jettySize=auto;html=1;exitX=0.5;exitY=0;exitDx=0;exitDy=0;exitPerimeter=0;" edge="1" parent="1" source="ssPpFOcRR2jyjij2KuCS-2257">
          <mxGeometry relative="1" as="geometry">
            <mxPoint x="418.6666666666665" y="90" as="targetPoint" />
          </mxGeometry>
        </mxCell>
        <mxCell id="ssPpFOcRR2jyjij2KuCS-2492" value="" style="edgeStyle=orthogonalEdgeStyle;rounded=0;orthogonalLoop=1;jettySize=auto;html=1;fontFamily=Tahoma;fontSize=12;" edge="1" parent="1" source="ssPpFOcRR2jyjij2KuCS-2257" target="ssPpFOcRR2jyjij2KuCS-2491">
          <mxGeometry relative="1" as="geometry" />
        </mxCell>
        <mxCell id="ssPpFOcRR2jyjij2KuCS-2257" value="" style="shape=mxgraph.cisco.routers.10700;sketch=0;html=1;pointerEvents=1;dashed=0;fillColor=#036897;strokeColor=#ffffff;strokeWidth=2;verticalLabelPosition=bottom;verticalAlign=top;align=center;outlineConnect=0;" vertex="1" parent="1">
          <mxGeometry x="368" y="160" width="100" height="70" as="geometry" />
        </mxCell>
        <mxCell id="ssPpFOcRR2jyjij2KuCS-2263" style="edgeStyle=orthogonalEdgeStyle;rounded=0;orthogonalLoop=1;jettySize=auto;html=1;" edge="1" parent="1" source="ssPpFOcRR2jyjij2KuCS-2258" target="ssPpFOcRR2jyjij2KuCS-2262">
          <mxGeometry relative="1" as="geometry" />
        </mxCell>
        <mxCell id="ssPpFOcRR2jyjij2KuCS-2264" style="edgeStyle=orthogonalEdgeStyle;rounded=0;orthogonalLoop=1;jettySize=auto;html=1;startArrow=none;" edge="1" parent="1" source="ssPpFOcRR2jyjij2KuCS-2498" target="ssPpFOcRR2jyjij2KuCS-2261">
          <mxGeometry relative="1" as="geometry" />
        </mxCell>
        <mxCell id="ssPpFOcRR2jyjij2KuCS-2494" value="" style="edgeStyle=orthogonalEdgeStyle;rounded=0;orthogonalLoop=1;jettySize=auto;html=1;fontFamily=Tahoma;fontSize=12;" edge="1" parent="1" source="ssPpFOcRR2jyjij2KuCS-2258" target="ssPpFOcRR2jyjij2KuCS-2493">
          <mxGeometry relative="1" as="geometry" />
        </mxCell>
        <mxCell id="ssPpFOcRR2jyjij2KuCS-2497" value="" style="edgeStyle=orthogonalEdgeStyle;rounded=0;orthogonalLoop=1;jettySize=auto;html=1;fontFamily=Tahoma;fontSize=12;" edge="1" parent="1" source="ssPpFOcRR2jyjij2KuCS-2258" target="ssPpFOcRR2jyjij2KuCS-2496">
          <mxGeometry relative="1" as="geometry" />
        </mxCell>
        <mxCell id="ssPpFOcRR2jyjij2KuCS-2258" value="" style="shape=mxgraph.cisco.switches.workgroup_switch;sketch=0;html=1;pointerEvents=1;dashed=0;fillColor=#036897;strokeColor=#ffffff;strokeWidth=2;verticalLabelPosition=bottom;verticalAlign=top;align=center;outlineConnect=0;" vertex="1" parent="1">
          <mxGeometry x="357.5" y="570" width="121" height="60" as="geometry" />
        </mxCell>
        <mxCell id="ssPpFOcRR2jyjij2KuCS-2269" style="edgeStyle=orthogonalEdgeStyle;rounded=0;orthogonalLoop=1;jettySize=auto;html=1;entryX=0.5;entryY=0;entryDx=0;entryDy=0;entryPerimeter=0;startArrow=none;" edge="1" parent="1" source="ssPpFOcRR2jyjij2KuCS-2508" target="ssPpFOcRR2jyjij2KuCS-2268">
          <mxGeometry relative="1" as="geometry" />
        </mxCell>
        <mxCell id="ssPpFOcRR2jyjij2KuCS-2261" value="" style="shape=mxgraph.cisco.switches.workgroup_switch;sketch=0;html=1;pointerEvents=1;dashed=0;fillColor=#036897;strokeColor=#ffffff;strokeWidth=2;verticalLabelPosition=bottom;verticalAlign=top;align=center;outlineConnect=0;" vertex="1" parent="1">
          <mxGeometry x="578" y="660" width="121" height="60" as="geometry" />
        </mxCell>
        <mxCell id="ssPpFOcRR2jyjij2KuCS-2267" style="edgeStyle=orthogonalEdgeStyle;rounded=0;orthogonalLoop=1;jettySize=auto;html=1;" edge="1" parent="1" source="ssPpFOcRR2jyjij2KuCS-2262" target="ssPpFOcRR2jyjij2KuCS-2265">
          <mxGeometry relative="1" as="geometry" />
        </mxCell>
        <mxCell id="ssPpFOcRR2jyjij2KuCS-2262" value="" style="shape=mxgraph.cisco.switches.workgroup_switch;sketch=0;html=1;pointerEvents=1;dashed=0;fillColor=#036897;strokeColor=#ffffff;strokeWidth=2;verticalLabelPosition=bottom;verticalAlign=top;align=center;outlineConnect=0;" vertex="1" parent="1">
          <mxGeometry x="128" y="670" width="121" height="60" as="geometry" />
        </mxCell>
        <mxCell id="ssPpFOcRR2jyjij2KuCS-2265" value="" style="shape=mxgraph.cisco.computers_and_peripherals.terminal;sketch=0;html=1;pointerEvents=1;dashed=0;fillColor=#036897;strokeColor=#ffffff;strokeWidth=2;verticalLabelPosition=bottom;verticalAlign=top;align=center;outlineConnect=0;" vertex="1" parent="1">
          <mxGeometry x="140.81" y="860" width="95.37" height="90" as="geometry" />
        </mxCell>
        <mxCell id="ssPpFOcRR2jyjij2KuCS-2268" value="" style="shape=mxgraph.cisco.computers_and_peripherals.terminal;sketch=0;html=1;pointerEvents=1;dashed=0;fillColor=#036897;strokeColor=#ffffff;strokeWidth=2;verticalLabelPosition=bottom;verticalAlign=top;align=center;outlineConnect=0;" vertex="1" parent="1">
          <mxGeometry x="590.31" y="860" width="96.38" height="90" as="geometry" />
        </mxCell>
        <mxCell id="ssPpFOcRR2jyjij2KuCS-2272" value="&lt;font style=&quot;font-size: 24px;&quot; face=&quot;Tahoma&quot;&gt;Intrenet&lt;/font&gt;" style="rounded=0;whiteSpace=wrap;html=1;" vertex="1" parent="1">
          <mxGeometry x="321" y="20" width="186" height="60" as="geometry" />
        </mxCell>
        <mxCell id="ssPpFOcRR2jyjij2KuCS-2276" value="&lt;div align=&quot;left&quot;&gt;&lt;font style=&quot;font-size: 12px;&quot; face=&quot;Tahoma&quot;&gt;R01.TEST&lt;/font&gt;&lt;/div&gt;&lt;div align=&quot;left&quot;&gt;&lt;font style=&quot;font-size: 12px;&quot; face=&quot;Tahoma&quot;&gt;ether 2:&lt;br&gt;vlan10 ip - 192.168.10.1&lt;br&gt;&lt;/font&gt;&lt;/div&gt;&lt;div align=&quot;left&quot;&gt;&lt;font style=&quot;font-size: 12px;&quot; face=&quot;Tahoma&quot;&gt;vlan20 ip - 192.168.20.1&lt;br&gt;&lt;/font&gt;&lt;/div&gt;" style="rounded=0;whiteSpace=wrap;html=1;fontSize=24;align=left;" vertex="1" parent="1">
          <mxGeometry x="489" y="135" width="210" height="120" as="geometry" />
        </mxCell>
        <mxCell id="ssPpFOcRR2jyjij2KuCS-2488" value="&lt;div align=&quot;left&quot;&gt;&lt;font style=&quot;font-size: 12px;&quot; face=&quot;Tahoma&quot;&gt;SW02.L3.01.TEST&lt;/font&gt;&lt;/div&gt;&lt;div align=&quot;left&quot;&gt;&lt;font style=&quot;font-size: 12px;&quot; face=&quot;Tahoma&quot;&gt;ether 2:&lt;br&gt;vlan10 ip - 192.168.10.253&lt;br&gt;&lt;/font&gt;&lt;/div&gt;" style="rounded=0;whiteSpace=wrap;html=1;fontSize=24;align=left;" vertex="1" parent="1">
          <mxGeometry x="-120" y="637.5" width="210" height="105" as="geometry" />
        </mxCell>
        <mxCell id="ssPpFOcRR2jyjij2KuCS-2489" value="&lt;div align=&quot;left&quot;&gt;&lt;font style=&quot;font-size: 12px;&quot; face=&quot;Tahoma&quot;&gt;SW02.L3.02.TEST&lt;/font&gt;&lt;/div&gt;&lt;div align=&quot;left&quot;&gt;&lt;font style=&quot;font-size: 12px;&quot; face=&quot;Tahoma&quot;&gt;ether 2:&lt;br&gt;&lt;/font&gt;&lt;/div&gt;&lt;div align=&quot;left&quot;&gt;&lt;font style=&quot;font-size: 12px;&quot; face=&quot;Tahoma&quot;&gt;vlan20 ip - 192.168.20.253&lt;br&gt;&lt;/font&gt;&lt;/div&gt;" style="rounded=0;whiteSpace=wrap;html=1;fontSize=24;align=left;" vertex="1" parent="1">
          <mxGeometry x="740" y="637.5" width="210" height="100" as="geometry" />
        </mxCell>
        <mxCell id="ssPpFOcRR2jyjij2KuCS-2490" value="&lt;font style=&quot;font-size: 12px;&quot; face=&quot;Tahoma&quot;&gt;SW01.L3.01.TEST&lt;/font&gt;&lt;div align=&quot;left&quot;&gt;&lt;font style=&quot;font-size: 12px;&quot; face=&quot;Tahoma&quot;&gt;ether 2:&lt;br&gt;vlan10 ip - 192.168.10.254&lt;br&gt;&lt;/font&gt;&lt;/div&gt;&lt;div align=&quot;left&quot;&gt;&lt;font style=&quot;font-size: 12px;&quot; face=&quot;Tahoma&quot;&gt;vlan20 ip - 192.168.20.254&lt;/font&gt;&lt;/div&gt;&lt;div align=&quot;left&quot;&gt;&lt;font style=&quot;font-size: 12px;&quot; face=&quot;Tahoma&quot;&gt;ether 3:&lt;br&gt;vlan10 ip - 192.168.10.254&lt;/font&gt;&lt;/div&gt;&lt;div align=&quot;left&quot;&gt;&lt;font style=&quot;font-size: 12px;&quot; face=&quot;Tahoma&quot;&gt;ether 4:&lt;br&gt;vlan10 ip - 192.168.20.254&lt;/font&gt;&lt;/div&gt;" style="rounded=0;whiteSpace=wrap;html=1;fontSize=24;align=left;" vertex="1" parent="1">
          <mxGeometry x="450" y="330" width="353.31" height="220" as="geometry" />
        </mxCell>
        <mxCell id="ssPpFOcRR2jyjij2KuCS-2491" value="Eth2" style="whiteSpace=wrap;html=1;verticalAlign=top;fillColor=#036897;strokeColor=#ffffff;sketch=0;dashed=0;strokeWidth=2;" vertex="1" parent="1">
          <mxGeometry x="388" y="240" width="60" height="30" as="geometry" />
        </mxCell>
        <mxCell id="ssPpFOcRR2jyjij2KuCS-2493" value="Eth2" style="whiteSpace=wrap;html=1;verticalAlign=top;fillColor=#036897;strokeColor=#ffffff;sketch=0;dashed=0;strokeWidth=2;" vertex="1" parent="1">
          <mxGeometry x="392" y="530" width="52" height="30" as="geometry" />
        </mxCell>
        <mxCell id="ssPpFOcRR2jyjij2KuCS-2495" value="" style="edgeStyle=orthogonalEdgeStyle;rounded=0;orthogonalLoop=1;jettySize=auto;html=1;entryX=0.5;entryY=0;entryDx=0;entryDy=0;entryPerimeter=0;endArrow=none;" edge="1" parent="1" source="ssPpFOcRR2jyjij2KuCS-2257" target="ssPpFOcRR2jyjij2KuCS-2493">
          <mxGeometry relative="1" as="geometry">
            <mxPoint x="418" y="230" as="sourcePoint" />
            <mxPoint x="418" y="570" as="targetPoint" />
          </mxGeometry>
        </mxCell>
        <mxCell id="ssPpFOcRR2jyjij2KuCS-2496" value="Eth3" style="whiteSpace=wrap;html=1;verticalAlign=top;fillColor=#036897;strokeColor=#ffffff;sketch=0;dashed=0;strokeWidth=2;" vertex="1" parent="1">
          <mxGeometry x="300" y="590" width="47" height="30" as="geometry" />
        </mxCell>
        <mxCell id="ssPpFOcRR2jyjij2KuCS-2498" value="Eth4" style="whiteSpace=wrap;html=1;verticalAlign=top;fillColor=#036897;strokeColor=#ffffff;sketch=0;dashed=0;strokeWidth=2;" vertex="1" parent="1">
          <mxGeometry x="489" y="585" width="47" height="30" as="geometry" />
        </mxCell>
        <mxCell id="ssPpFOcRR2jyjij2KuCS-2499" value="" style="edgeStyle=orthogonalEdgeStyle;rounded=0;orthogonalLoop=1;jettySize=auto;html=1;endArrow=none;" edge="1" parent="1" source="ssPpFOcRR2jyjij2KuCS-2258" target="ssPpFOcRR2jyjij2KuCS-2498">
          <mxGeometry relative="1" as="geometry">
            <mxPoint x="478.5" y="600" as="sourcePoint" />
            <mxPoint x="638.5" y="660" as="targetPoint" />
          </mxGeometry>
        </mxCell>
        <mxCell id="ssPpFOcRR2jyjij2KuCS-2503" value="Eth2" style="whiteSpace=wrap;html=1;verticalAlign=top;fillColor=#036897;strokeColor=#ffffff;sketch=0;dashed=0;strokeWidth=2;" vertex="1" parent="1">
          <mxGeometry x="164.99" y="620" width="47" height="30" as="geometry" />
        </mxCell>
        <mxCell id="ssPpFOcRR2jyjij2KuCS-2504" value="Eth2" style="whiteSpace=wrap;html=1;verticalAlign=top;fillColor=#036897;strokeColor=#ffffff;sketch=0;dashed=0;strokeWidth=2;" vertex="1" parent="1">
          <mxGeometry x="615" y="615" width="47" height="30" as="geometry" />
        </mxCell>
        <mxCell id="ssPpFOcRR2jyjij2KuCS-2505" value="PC1&lt;br&gt;alpine" style="rounded=0;whiteSpace=wrap;html=1;fontFamily=Tahoma;fontSize=12;" vertex="1" parent="1">
          <mxGeometry x="148.49" y="960" width="80" height="40" as="geometry" />
        </mxCell>
        <mxCell id="ssPpFOcRR2jyjij2KuCS-2506" value="PC2&lt;br&gt;ubuntu" style="rounded=0;whiteSpace=wrap;html=1;fontFamily=Tahoma;fontSize=12;" vertex="1" parent="1">
          <mxGeometry x="598.5" y="960" width="80" height="40" as="geometry" />
        </mxCell>
        <mxCell id="ssPpFOcRR2jyjij2KuCS-2507" value="Eth3" style="whiteSpace=wrap;html=1;verticalAlign=top;fillColor=#036897;strokeColor=#ffffff;sketch=0;dashed=0;strokeWidth=2;" vertex="1" parent="1">
          <mxGeometry x="165" y="742.5" width="47" height="30" as="geometry" />
        </mxCell>
        <mxCell id="ssPpFOcRR2jyjij2KuCS-2508" value="Eth3" style="whiteSpace=wrap;html=1;verticalAlign=top;fillColor=#036897;strokeColor=#ffffff;sketch=0;dashed=0;strokeWidth=2;" vertex="1" parent="1">
          <mxGeometry x="615" y="737.5" width="47" height="30" as="geometry" />
        </mxCell>
        <mxCell id="ssPpFOcRR2jyjij2KuCS-2509" value="" style="edgeStyle=orthogonalEdgeStyle;rounded=0;orthogonalLoop=1;jettySize=auto;html=1;entryX=0.5;entryY=0;entryDx=0;entryDy=0;entryPerimeter=0;endArrow=none;" edge="1" parent="1" source="ssPpFOcRR2jyjij2KuCS-2261" target="ssPpFOcRR2jyjij2KuCS-2508">
          <mxGeometry relative="1" as="geometry">
            <mxPoint x="638.5" y="720" as="sourcePoint" />
            <mxPoint x="638.5" y="860" as="targetPoint" />
          </mxGeometry>
        </mxCell>
      </root>
    </mxGraphModel>
  </diagram>
</mxfile>
